<svg width="64" height="64" viewBox="0 0 64 64" fill="none" xmlns="http://www.w3.org/2000/svg" role="img" aria-label="Rubberduck with a notepad">
  <defs>
    <linearGradient id="rd-body-n" x1="12" y1="10" x2="48" y2="58" gradientUnits="userSpaceOnUse">
      <stop stop-color="#FFD64A"/>
      <stop offset="1" stop-color="#F4B412"/>
    </linearGradient>
  </defs>
  <rect width="64" height="64" rx="14" fill="#0d0f14"/>
  <g fill="url(#rd-body-n)">
    <ellipse cx="30" cy="42" rx="22" ry="14"/>
    <circle cx="41" cy="26" r="13"/>
  </g>
  <!-- short flat rubber-duck bill -->
  <path fill="#F47C16" d="M51 22.5c6 0 9.8 1.8 9.8 4.2S57 31 51 31c-1.5-2.8-1.5-5.7 0-8.5z"/>
  <path d="M51.5 26.7h8.7" stroke="#D9620A" stroke-width="1.3" stroke-linecap="round" opacity="0.5"/>
  <!-- eye -->
  <circle cx="43" cy="23" r="2.8" fill="#22242b"/>
  <circle cx="44.1" cy="21.9" r="0.95" fill="#fff"/>
  <!-- glossy highlight -->
  <ellipse cx="34" cy="20" rx="5" ry="3" fill="#fff" opacity="0.26" transform="rotate(-24 34 20)"/>
  <!-- notepad held in front of the body, slightly tilted -->
  <g transform="rotate(-8 26 44)">
    <rect x="16" y="38" width="20" height="14" rx="2" fill="#f7f7f2" stroke="#c9c9bd" stroke-width="0.8"/>
    <!-- spiral binding -->
    <line x1="16" y1="40" x2="16" y2="50" stroke="#9a9a8c" stroke-width="1.4" stroke-dasharray="1 2" stroke-linecap="round"/>
    <!-- written lines -->
    <line x1="20" y1="42" x2="32" y2="42" stroke="#9aa0ad" stroke-width="1"/>
    <line x1="20" y1="45.5" x2="32" y2="45.5" stroke="#9aa0ad" stroke-width="1"/>
    <line x1="20" y1="49" x2="28" y2="49" stroke="#9aa0ad" stroke-width="1"/>
  </g>
  <!-- pencil -->
  <g transform="rotate(38 40 44)">
    <rect x="37" y="36" width="3" height="14" fill="#F4B412"/>
    <path d="M37 36l1.5-3 1.5 3z" fill="#3a3a3a"/>
    <rect x="37" y="49" width="3" height="2" fill="#e87b6e"/>
  </g>
</svg>
